# xmcd CD database file
#
# Track frame offsets:
#	150
#	17168
#	33295
#	51646
#	69809
#	88712
#	106395
#	118281
#	131562
#	143956
#	153766
#
# Disc length: 2245 seconds
#
# Revision: 0
# Processed by: cddbd v1.4PL0 Copyright (c) Steve Scherf et al.
# Submitted via: CDex 1.50
#
DISCID=9508c30b
DTITLE=Clarelynn Rose - Elegent Tern
DYEAR=2002
DGENRE=New Age
TTITLE0=Sunshower
TTITLE1=Copperfield
TTITLE2=Monk's Gate/I saw three ships
TTITLE3=Elegant Tern
TTITLE4=Damnation Trail
TTITLE5=Sound of the Thunderclouds
TTITLE6=Song of Putuo Mountain
TTITLE7=Su Lu
TTITLE8=Asea
TTITLE9=Pacific
TTITLE10=Redstone
EXTD=YEAR: 2002
EXTT0=
EXTT1=
EXTT2=
EXTT3=
EXTT4=
EXTT5=
EXTT6=
EXTT7=
EXTT8=
EXTT9=
EXTT10=
PLAYORDER=
